<svg xmlns="http://www.w3.org/2000/svg" width="18" height="19.482" viewBox="0 0 18 19.482">
  <path id="flag" d="M5,4.8a10.969,10.969,0,0,1,3.626-.211,12.736,12.736,0,0,1,3.023.85l.03.011a14.531,14.531,0,0,0,3.447.951A12.606,12.606,0,0,0,19,6.24V15.2a10.972,10.972,0,0,1-3.626.211,12.739,12.739,0,0,1-3.023-.85l-.03-.011A14.534,14.534,0,0,0,8.874,13.6,12.607,12.607,0,0,0,5,13.76ZM19.757,4.03a11.764,11.764,0,0,1-4.383.384,12.736,12.736,0,0,1-3.023-.85l-.03-.011A14.531,14.531,0,0,0,8.874,2.6a13.719,13.719,0,0,0-5.1.423A1,1,0,0,0,3,4V21a1,1,0,0,0,2,0V15.8a10.972,10.972,0,0,1,3.626-.211,12.739,12.739,0,0,1,3.023.85l.03.011a14.534,14.534,0,0,0,3.447.951,13.739,13.739,0,0,0,5.117-.428A1,1,0,0,0,21,16V5a1,1,0,0,0-1.243-.97Z" transform="translate(-3 -2.518)" fill="#013c25" fill-rule="evenodd"/>
</svg>
