<svg xmlns="http://www.w3.org/2000/svg" width="19" height="18" viewBox="0 0 19 18">
  <g id="log-out" transform="translate(-3 -3)">
    <path id="Tracé_268"  d="M11,20a1,1,0,0,0-1-1H5V5h5a1,1,0,0,0,0-2H5A2,2,0,0,0,3,5V19a2,2,0,0,0,2,2h5A1,1,0,0,0,11,20Z" fill="#013c25" fill-rule="evenodd"/>
    <path id="Tracé_269"  d="M21.714,12.7A1,1,0,0,0,22,12V12a1,1,0,0,0-.293-.7l-4-4a1,1,0,0,0-1.414,1.414L18.586,11H9a1,1,0,0,0,0,2h9.586l-2.293,2.293a1,1,0,0,0,1.414,1.414l4-4Z" fill="#013c25"/>
  </g>
</svg>
