<svg xmlns="http://www.w3.org/2000/svg" width="20" height="20" viewBox="0 0 20 20">
  <path id="users" d="M10,4a4,4,0,1,0,4,4A4,4,0,0,0,10,4ZM4,8a6,6,0,1,1,6,6A6,6,0,0,1,4,8ZM16.828,3.757a1,1,0,0,1,1.414,0,6,6,0,0,1,0,8.485,1,1,0,1,1-1.414-1.414,4,4,0,0,0,0-5.657A1,1,0,0,1,16.828,3.757Zm.7,13a1,1,0,0,1,1.213-.728,3.969,3.969,0,0,1,2.652,2.148A6.408,6.408,0,0,1,22,21a1,1,0,0,1-2,0,4.429,4.429,0,0,0-.394-1.928,1.973,1.973,0,0,0-1.348-1.1A1,1,0,0,1,17.53,16.757ZM6.5,18A2.783,2.783,0,0,0,4,21a1,1,0,0,1-2,0,4.771,4.771,0,0,1,4.5-5h7A4.771,4.771,0,0,1,18,21a1,1,0,0,1-2,0,2.783,2.783,0,0,0-2.5-3Z" transform="translate(-2 -2)" fill="#013c25"/>
</svg>
