<svg xmlns="http://www.w3.org/2000/svg" width="54.999" height="55" viewBox="0 0 54.999 55">
  <g id="Groupe_244" data-name="Groupe 244" transform="translate(-1654.262 -0.5)">
    <path id="Soustraction_1" data-name="Soustraction 1" d="M55,55H0V0H55V55ZM27.971,8.075c-3.57,0-6.741.054-8.278.142-3.749.177-6.342,1.174-8.409,3.233-2.052,2.044-3.051,4.637-3.239,8.406-.189,3.327-.189,13.231,0,16.559.177,3.759,1.175,6.351,3.239,8.405s4.657,3.056,8.409,3.243c1.536.089,4.63.142,8.279.142s6.737-.053,8.276-.142c3.757-.178,6.351-1.178,8.409-3.243s3.051-4.645,3.239-8.405c.189-3.325.189-13.224,0-16.55-.177-3.758-1.177-6.351-3.239-8.405S40.01,8.406,36.249,8.217C34.711,8.129,31.54,8.075,27.971,8.075Zm3.543,36.537c-.735,0-1.45-.007-2.113-.014h-.1c-.484,0-.941-.009-1.331-.009-.316,0-.679,0-1.063.006l-.333,0h-.052c-.608,0-1.3.012-2.01.012-2.691,0-6.488-.085-8.369-.827a6.765,6.765,0,0,1-3.813-3.814c-.9-2.265-.85-7.154-.816-10.392.006-.569.01-1.035.01-1.438s0-.873-.009-1.406c-.032-3.247-.08-8.154.815-10.421A6.773,6.773,0,0,1,16.148,12.5c1.875-.744,5.629-.829,8.289-.829.734,0,1.45.007,2.113.014h.094c.485,0,.942.009,1.332.009.317,0,.681,0,1.065-.006l.331,0h.047c.609-.006,1.3-.013,2.015-.013,2.691,0,6.488.085,8.369.827a6.775,6.775,0,0,1,3.814,3.814c.9,2.264.85,7.153.816,10.39-.006.567-.01,1.034-.01,1.438s0,.87.01,1.438c.033,3.239.083,8.134-.816,10.392A6.771,6.771,0,0,1,39.8,43.783C37.929,44.527,34.175,44.612,31.515,44.612Zm-3.539-26.76a10.288,10.288,0,1,0,10.29,10.286A10.3,10.3,0,0,0,27.976,17.853Zm10.709-2.82a2.4,2.4,0,1,0,2.4,2.4A2.4,2.4,0,0,0,38.685,15.032Zm-10.709,19.8a6.689,6.689,0,1,1,6.689-6.689A6.7,6.7,0,0,1,27.976,34.828Z" transform="translate(1654.261 0.5)" fill="#fff"/>
  </g>
</svg>
