<svg xmlns="http://www.w3.org/2000/svg" width="55" height="55" viewBox="0 0 55 55">
  <path id="Icon_awesome-twitter-square" data-name="Icon awesome-twitter-square" d="M49.107,2.25H0v55H55v-55Zm-6,19.5c.025.344.025.7.025,1.044,0,10.644-8.1,22.908-22.908,22.908A22.8,22.8,0,0,1,7.857,42.088a16.963,16.963,0,0,0,1.94.1,16.143,16.143,0,0,0,9.993-3.437,8.062,8.062,0,0,1-7.526-5.586,8.678,8.678,0,0,0,3.634-.147,8.052,8.052,0,0,1-6.445-7.906v-.1a8.046,8.046,0,0,0,3.634,1.019,8.035,8.035,0,0,1-3.585-6.7,7.951,7.951,0,0,1,1.093-4.064,22.862,22.862,0,0,0,16.6,8.422A8.069,8.069,0,0,1,40.93,16.331a15.777,15.777,0,0,0,5.107-1.94A8.031,8.031,0,0,1,42.5,18.824a16.023,16.023,0,0,0,4.641-1.252A16.948,16.948,0,0,1,43.1,21.746Z" transform="translate(0 -2.25)" fill="#fff"/>
</svg>
